name GIL11_slow2.mot
datacolumns 153
datarows 4
range 0.59166658 0.61666656
endheader

                time	           pelvis_tx	           pelvis_ty	           pelvis_tz	         pelvis_tilt	         pelvis_list	     pelvis_rotation	       hip_flexion_r	     hip_adduction_r	      hip_rotation_r	        knee_angle_r	       ankle_angle_r	    subtalar_angle_r	         mtp_angle_r	       hip_flexion_l	     hip_adduction_l	      hip_rotation_l	        knee_angle_l	       ankle_angle_l	    subtalar_angle_l	         mtp_angle_l	    lumbar_extension	      lumbar_bending	     lumbar_rotation	     ground_force_vx	     ground_force_vy	     ground_force_vz	     ground_force_px	     ground_force_py	     ground_force_pz	     ground_force_vx	     ground_force_vy	     ground_force_vz	     ground_force_px	     ground_force_py	     ground_force_pz	     ground_torque_x	     ground_torque_y	     ground_torque_z	     ground_torque_x	     ground_torque_y	     ground_torque_z	    ground_marker_px	    ground_marker_py	    ground_marker_pz	    ground_marker_px	    ground_marker_py	    ground_marker_pz	    ground_marker_px	    ground_marker_py	    ground_marker_pz	    ground_marker_px	    ground_marker_py	    ground_marker_pz	    ground_marker_px	    ground_marker_py	    ground_marker_pz	    ground_marker_px	    ground_marker_py	    ground_marker_pz	    ground_marker_px	    ground_marker_py	    ground_marker_pz	    ground_marker_px	    ground_marker_py	    ground_marker_pz	    ground_marker_px	    ground_marker_py	    ground_marker_pz	    ground_marker_px	    ground_marker_py	    ground_marker_pz	    ground_marker_px	    ground_marker_py	    ground_marker_pz	    ground_marker_px	    ground_marker_py	    ground_marker_pz	    ground_marker_px	    ground_marker_py	    ground_marker_pz	    ground_marker_px	    ground_marker_py	    ground_marker_pz	    ground_marker_px	    ground_marker_py	    ground_marker_pz	    ground_marker_px	    ground_marker_py	    ground_marker_pz	    ground_marker_px	    ground_marker_py	    ground_marker_pz	    ground_marker_px	    ground_marker_py	    ground_marker_pz	    ground_marker_px	    ground_marker_py	    ground_marker_pz	    ground_marker_px	    ground_marker_py	    ground_marker_pz	    ground_marker_px	    ground_marker_py	    ground_marker_pz	    ground_marker_px	    ground_marker_py	    ground_marker_pz	    ground_marker_px	    ground_marker_py	    ground_marker_pz	    ground_marker_px	    ground_marker_py	    ground_marker_pz	    ground_marker_px	    ground_marker_py	    ground_marker_pz	    ground_marker_px	    ground_marker_py	    ground_marker_pz	    ground_marker_px	    ground_marker_py	    ground_marker_pz	    ground_marker_px	    ground_marker_py	    ground_marker_pz	    ground_marker_px	    ground_marker_py	    ground_marker_pz	    ground_marker_px	    ground_marker_py	    ground_marker_pz	    ground_marker_px	    ground_marker_py	    ground_marker_pz	    ground_marker_px	    ground_marker_py	    ground_marker_pz	    ground_marker_px	    ground_marker_py	    ground_marker_pz	    ground_marker_px	    ground_marker_py	    ground_marker_pz	    ground_marker_px	    ground_marker_py	    ground_marker_pz	    ground_marker_px	    ground_marker_py	    ground_marker_pz	    ground_marker_px	    ground_marker_py	    ground_marker_pz	
          0.59166658	          1.69012189	          0.87189656	         -0.29834414	         -7.50095558	         -1.36112082	          3.87091398	         32.93379593	         -4.67056274	          2.23080945	        -29.19474983	          3.17311811	          0.00000000	          0.00000000	          2.85159206	          3.86486769	          7.69742203	         -8.03797913	         10.54455948	          0.00000000	          0.00000000	         -0.27522749	         -2.97554255	         -1.69211471	          0.00000000	          0.00000000	          0.00000000	          1.97850293	          0.00000000	         -0.20971873	         16.78847655	        587.71763158	         28.61427395	          1.58594470	          0.00000000	         -0.33699390	          0.00000000	          0.00000000	          0.00000000	          0.00000000	         -1.54264844	          0.00000000	          1.60997784	          0.81950819	         -0.29295897	          1.60389197	          0.80300385	         -0.21595423	          1.58802807	          0.80316937	         -0.36725232	          1.77064884	          0.45544407	         -0.19647399	          1.55889297	          0.42517871	         -0.33954918	          1.74549818	          0.08535177	         -0.19607529	          1.47944129	          0.06887774	         -0.30535895	          1.69012189	          0.87189656	         -0.29834414	          1.69861066	          0.87187332	         -0.18000180	          1.68163311	          0.87191981	         -0.41668651	          1.50109732	          0.94181752	         -0.24962746	          1.49405432	          0.93944693	         -0.30358699	          1.77479815	          0.46066412	         -0.13885859	          1.56219614	          0.42069289	         -0.39728105	          1.76789045	          0.44943258	         -0.25282395	          1.57835698	          0.43741727	         -0.27799192	          1.73214388	          0.08629990	         -0.15838225	          1.46582806	          0.06830457	         -0.34296677	          1.75702822	          0.09287260	         -0.22922778	          1.49221241	          0.07665564	         -0.28100249	          1.58307433	          1.37381864	         -0.29526860	          1.71217752	          1.31070149	         -0.24987939	          1.70699608	          1.30486536	         -0.35557604	          1.70601285	          1.30439425	         -0.30198756	          1.74511158	          1.23466372	         -0.30373076	          1.85397196	          0.64241213	         -0.22408153	          1.60548306	          0.54316407	         -0.49420527	          1.77747321	          0.66229713	         -0.16409519	          1.55231571	          0.60148108	         -0.43713170	          1.80320263	          0.57825011	         -0.16228673	          1.55558681	          0.51433778	         -0.41830194	          1.73075318	          0.16645008	         -0.08772170	          1.59682715	          0.17337646	         -0.30960736	          1.73349845	          0.17353912	         -0.13034706	          1.55569124	          0.17985171	         -0.31910071	          1.83923781	          0.05998044	         -0.16755521	          1.57964826	          0.04144313	         -0.34563261	
          0.59999990	          1.69581616	          0.87115777	         -0.29837972	         -7.54469109	         -1.40321875	          3.95255566	         33.11817169	         -4.53721189	          2.19489861	        -27.29786110	          2.96963573	          0.00000000	          0.00000000	          2.34339714	          3.81608486	          7.83293676	         -7.76940107	         10.71163177	          0.00000000	          0.00000000	         -0.43880087	         -3.13172483	         -1.94337130	          0.00000000	          0.00000000	          0.00000000	          1.97973291	          0.00000000	         -0.20974823	         18.90149559	        587.84594566	         29.23390005	          1.58817798	          0.00000000	         -0.33744955	          0.00000000	          0.00000000	          0.00000000	          0.00000000	         -1.58984326	          0.00000000	          1.61654389	          0.81951308	         -0.29265502	          1.60966218	          0.80235171	         -0.21583803	          1.59355819	          0.80249721	         -0.36711079	          1.77719140	          0.45525759	         -0.19753097	          1.56081021	          0.42494869	         -0.33936659	          1.76529276	          0.08390026	         -0.19540747	          1.47962511	          0.06911986	         -0.30506638	          1.69581616	          0.87115777	         -0.29837972	          1.70448852	          0.87115330	         -0.18011217	          1.68714380	          0.87116224	         -0.41664729	          1.50696492	          0.94120938	         -0.24944398	          1.49997270	          0.93881291	         -0.30340359	          1.78144538	          0.46034995	         -0.13991179	          1.56411874	          0.42041954	         -0.39709473	          1.77453160	          0.44816214	         -0.25386584	          1.57849729	          0.43586549	         -0.27858651	          1.75184500	          0.08454652	         -0.15774132	          1.46587801	          0.06863572	         -0.34262675	          1.77567184	          0.09179135	         -0.22884686	          1.49253607	          0.07675381	         -0.28063348	          1.58972883	          1.37320650	         -0.29507723	          1.71783376	          1.30963612	         -0.24954154	          1.71287727	          1.30341637	         -0.35542268	          1.71204996	          1.30356336	         -0.30168885	          1.75040591	          1.23317385	         -0.30311322	          1.85969889	          0.64190346	         -0.22476870	          1.60863400	          0.54256773	         -0.49390689	          1.78353429	          0.66115332	         -0.16559921	          1.55602586	          0.60102451	         -0.43701044	          1.80924368	          0.57731158	         -0.16345027	          1.55785620	          0.51394618	         -0.41866213	          1.74745643	          0.16515239	         -0.08742812	          1.59766567	          0.17300119	         -0.30966970	          1.74937117	          0.17204995	         -0.13028486	          1.55661321	          0.17815338	         -0.31886688	          1.85974956	          0.06172068	         -0.16731292	          1.57966089	          0.04150604	         -0.34552073	
          0.60833323	          1.70155406	          0.87036884	         -0.29842582	         -7.58731079	         -1.45261192	          4.04093218	         33.24659348	         -4.41208982	          2.20560050	        -25.35696220	          2.76313329	          0.00000000	          0.00000000	          1.84103107	          3.75987172	          7.99015665	         -7.52588224	         10.89892292	          0.00000000	          0.00000000	         -0.56803429	         -3.71908021	         -2.05689120	          0.00000000	          0.00000000	          0.00000000	          1.98086841	          0.00000000	         -0.20987140	         21.04602739	        588.67574021	         29.80156854	          1.59025317	          0.00000000	         -0.33785251	          0.00000000	          0.00000000	          0.00000000	          0.00000000	         -1.64473193	          0.00000000	          1.62248266	          0.81882334	         -0.29233861	          1.61549020	          0.80165458	         -0.21571380	          1.59912288	          0.80176806	         -0.36695832	          1.78342128	          0.45495254	         -0.19850391	          1.56281173	          0.42469022	         -0.33917856	          1.78476536	          0.08281402	         -0.19469063	          1.47978008	          0.06937698	         -0.30477062	          1.70155406	          0.87036884	         -0.29842582	          1.71042657	          0.87039250	         -0.18025082	          1.69268155	          0.87034523	         -0.41660082	          1.51291680	          0.94052911	         -0.24919763	          1.50596809	          0.93812537	         -0.30318549	          1.78783309	          0.45994946	         -0.14088823	          1.56613982	          0.42011717	         -0.39690214	          1.77953947	          0.44753873	         -0.25485554	          1.58106208	          0.43519107	         -0.27900776	          1.77119946	          0.08315060	         -0.15706283	          1.46590519	          0.06898651	         -0.34228510	          1.79572022	          0.09104075	         -0.22780561	          1.49281073	          0.07669096	         -0.28026289	          1.59661090	          1.37239134	         -0.29485029	          1.72409236	          1.30916739	         -0.24926144	          1.71897602	          1.30177689	         -0.35554084	          1.71811569	          1.30273831	         -0.30140471	          1.75637448	          1.23201692	         -0.30227214	          1.86532104	          0.64113444	         -0.22555761	          1.61188841	          0.54196990	         -0.49358270	          1.78942955	          0.66029835	         -0.16592164	          1.55996168	          0.60083687	         -0.43683809	          1.81501997	          0.57621926	         -0.16418247	          1.56104696	          0.51412135	         -0.41886565	          1.76374030	          0.16406327	         -0.08710843	          1.59855270	          0.17262152	         -0.30971566	          1.76588976	          0.17122191	         -0.12982789	          1.55677021	          0.17695265	         -0.31874201	          1.87982833	          0.06381170	         -0.16691360	          1.57966924	          0.04158305	         -0.34541762	
          0.61666656	          1.70734525	          0.86951572	         -0.29847342	         -7.63368225	         -1.50478804	          4.13249445	         33.33459091	         -4.29727554	          2.26558518	        -23.39814377	          2.55782747	          0.00000000	          0.00000000	          1.35103798	          3.70056963	          8.16132832	         -7.31025839	         11.08837318	          0.00000000	          0.00000000	         -0.48964432	         -3.77901769	         -2.16963482	          0.00000000	          0.00000000	          0.00000000	          1.98197095	          0.00000000	         -0.21003378	         23.21493472	        590.24962192	         30.29193288	          1.59216162	          0.00000000	         -0.33819547	          0.00000000	          0.00000000	          0.00000000	          0.00000000	         -1.70605127	          0.00000000	          1.62818694	          0.81775063	         -0.29201818	          1.62137282	          0.80090123	         -0.21558356	          1.60473180	          0.80098009	         -0.36679822	          1.78941059	          0.45452446	         -0.19938919	          1.56492090	          0.42442173	         -0.33898705	          1.80387354	          0.08209298	         -0.19394241	          1.47992420	          0.06967242	         -0.30447441	          1.70734525	          0.86951572	         -0.29847342	          1.71642518	          0.86956972	         -0.18039808	          1.69826519	          0.86946172	         -0.41654873	          1.51896429	          0.93977767	         -0.24888702	          1.51203203	          0.93739450	         -0.30291402	          1.79402852	          0.45945793	         -0.14178419	          1.56827962	          0.41980377	         -0.39670530	          1.78436172	          0.44570911	         -0.25262186	          1.58489275	          0.43511376	         -0.27891600	          1.79016709	          0.08211029	         -0.15636407	          1.46592915	          0.06938014	         -0.34194514	          1.81571257	          0.09045338	         -0.22668087	          1.49310887	          0.07671662	         -0.27998763	          1.60273099	          1.37145996	         -0.29455927	          1.73035920	          1.30878413	         -0.24908638	          1.72525036	          1.30123365	         -0.35529980	          1.72420704	          1.30192041	         -0.30113509	          1.76290762	          1.23167920	         -0.30197075	          1.87085009	          0.64013094	         -0.22643392	          1.61525929	          0.54139894	         -0.49323505	          1.79522717	          0.65972203	         -0.16608430	          1.56344557	          0.60082507	         -0.43639943	          1.82092345	          0.57498491	         -0.16365445	          1.56455541	          0.51444894	         -0.41864046	          1.77959716	          0.16316020	         -0.08677173	          1.59947109	          0.17223696	         -0.30974346	          1.78226542	          0.17035685	         -0.12947047	          1.55730164	          0.17764719	         -0.31850335	          1.89944255	          0.06623040	         -0.16637608	          1.57967806	          0.04166302	         -0.34532183	
